<svg xmlns="http://www.w3.org/2000/svg" width="209" height="88" viewBox="0 0 209 88" fill="none"><path d="M29.4854 17.5067C31.2588 17.2339 32.9189 17.4797 34.4657 18.244C36.0126 19.0082 37.2597 20.2006 38.2071 21.8209C38.899 23.0617 39.3801 24.4006 39.6504 25.8376C39.9287 27.2733 40.0668 28.706 40.0649 30.1356C40.063 31.5652 39.9864 32.8831 39.8351 34.0892C39.3416 38.3051 38.2988 42.2605 36.7067 45.9553C35.1214 49.641 33.0953 52.8111 30.6286 55.4658C30.2211 55.9146 29.7483 56.3652 29.21 56.8176C28.6798 57.2688 28.0958 57.6379 27.4581 57.9249C26.8193 58.2038 26.1458 58.3115 25.4378 58.2479C24.473 58.117 23.641 57.5672 22.9417 56.5987C22.1387 55.3833 21.89 54.0867 22.1956 52.709C22.2444 52.5454 22.3367 52.4244 22.4725 52.346C22.6151 52.2584 22.7716 52.2343 22.9419 52.2738C23.1123 52.3134 23.2373 52.405 23.3169 52.5488C23.4045 52.6914 23.4286 52.8479 23.3891 53.0183C23.1668 54.03 23.3557 54.9908 23.9556 55.9006C24.4358 56.5661 24.9737 56.9392 25.5694 57.0201C26.7341 57.1696 28.123 56.3728 29.736 54.6297C32.1096 52.0633 34.0616 48.9989 35.592 45.4368C37.1211 41.8666 38.1303 38.0396 38.6194 33.9558C38.754 32.8015 38.8244 31.5503 38.8307 30.2022C38.8369 28.8541 38.7123 27.5097 38.4569 26.169C38.2082 24.819 37.7706 23.5761 37.1441 22.4403C36.3115 21.0323 35.2286 19.9995 33.8953 19.3421C32.5621 18.6846 31.1263 18.4824 29.5881 18.7353C27.1968 19.1031 24.49 20.6776 21.4677 23.4588C16.9262 27.6319 13.0313 32.7775 9.78287 38.8957C6.54249 45.0126 4.16749 51.6824 2.65787 58.9049C2.37262 60.2549 2.11791 61.8301 1.89374 63.6307C1.66957 65.4312 1.56298 67.3287 1.57398 69.3231C1.58621 71.3255 1.79103 73.2983 2.18844 75.2415C2.59511 77.1914 3.28666 78.9908 4.26308 80.6396C5.29382 82.3211 6.50853 83.5964 7.90721 84.4656C9.31514 85.3416 10.816 85.887 12.4098 86.1019C14.0128 86.3236 15.6257 86.2891 17.2485 85.9985C18.8726 85.7159 20.4241 85.2555 21.9031 84.6173C28.6734 81.7443 34.1298 75.2948 38.2722 65.2688C38.3463 65.1095 38.4565 64.9981 38.6028 64.9345C38.7584 64.8778 38.9192 64.8818 39.0852 64.9466C39.2432 65.0127 39.35 65.1195 39.4055 65.267C39.4704 65.4213 39.4744 65.5809 39.4176 65.7457C35.1418 76.0797 29.4678 82.7434 22.3956 85.7367C20.703 86.4817 18.9419 86.9948 17.1123 87.2762C15.3815 87.5588 13.6615 87.5646 11.9523 87.2935C10.2443 87.0305 8.63825 86.415 7.13403 85.447C5.63906 84.4858 4.32899 83.0978 3.20382 81.283C2.18049 79.5429 1.45068 77.6549 1.01438 75.6192C0.586114 73.5822 0.364323 71.5257 0.349008 69.4499C0.333694 67.374 0.437814 65.4071 0.66137 63.5491C0.891715 61.6819 1.15445 60.052 1.44959 58.6595C2.98885 51.3092 5.41138 44.5212 8.71719 38.2957C12.0218 32.0621 15.9914 26.8146 20.6261 22.5533C21.323 21.9039 22.1236 21.2345 23.028 20.5451C23.9391 19.8464 24.9274 19.2221 25.9928 18.6722C27.065 18.113 28.1971 17.7294 29.3891 17.5215C29.4212 17.5165 29.4533 17.5116 29.4854 17.5067Z" fill="#56504E"></path><path d="M51.391 54.4291C51.47 54.3019 51.5771 54.2239 51.7123 54.1948C51.8463 54.1578 51.9768 54.1788 52.104 54.2578C52.2311 54.3369 52.3092 54.4439 52.3382 54.5791C52.3672 54.7143 52.3462 54.8449 52.2752 54.9708C51.5943 56.0448 50.8094 56.95 49.9205 57.6863C49.0396 58.4214 48.1563 58.9269 47.2705 59.2028C46.3915 59.4694 45.623 59.4397 44.965 59.1138C44.7792 59.0273 44.5934 58.8875 44.4076 58.6943C44.2206 58.4931 44.0725 58.2242 43.9632 57.8878C43.6447 58.3804 43.2972 58.8446 42.9206 59.2803C42.6193 59.6717 42.2283 59.9864 41.7474 60.2247C41.6079 60.279 41.47 60.3166 41.3335 60.3376C40.844 60.4129 40.4058 60.2873 40.0188 59.9607C39.5361 59.4928 39.355 58.769 39.4754 57.7894C39.6255 56.7888 39.9743 55.8522 40.5218 54.9794C41.0682 54.0986 41.6423 53.4517 42.2441 53.0388C42.8768 52.6129 43.4651 52.4321 44.0089 52.4963C44.5805 52.5809 45.0141 52.8633 45.3098 53.3436C45.432 53.3905 45.5224 53.4711 45.581 53.5853C45.6384 53.6914 45.6529 53.8124 45.6245 53.9482C45.4597 54.6389 45.2417 55.3049 44.9707 55.9463C44.7262 57.1339 44.883 57.886 45.441 58.2027C46.1193 58.5009 47.0428 58.3096 48.2113 57.6288C49.3878 56.9468 50.4477 55.8802 51.391 54.4291ZM43.9754 55.6434C44.0736 55.1601 44.244 54.6123 44.4866 54C44.4335 53.8685 44.3514 53.762 44.2403 53.6806C44.128 53.591 44.0092 53.5395 43.8839 53.5259C43.8092 53.521 43.7277 53.5253 43.6394 53.5389C43.4067 53.5746 43.1336 53.6947 42.82 53.899C42.315 54.2477 41.8329 54.7983 41.3736 55.5507C40.9143 56.3031 40.6254 57.0951 40.5069 57.9265C40.4309 58.5543 40.5043 58.9783 40.7271 59.1987C40.8222 59.2827 40.9237 59.3287 41.0318 59.3367C41.1466 59.3355 41.2497 59.3114 41.341 59.2645C41.6311 59.1213 41.8969 58.8997 42.1383 58.5997C42.8914 57.7282 43.5038 56.7428 43.9754 55.6434Z" fill="#56504E"></path><path d="M67.7527 51.6171C67.8398 51.4887 67.9515 51.4141 68.0879 51.3931C68.2231 51.3641 68.3537 51.3851 68.4796 51.4561C68.5999 51.5443 68.6706 51.6567 68.6916 51.7931C68.7206 51.9283 68.6996 52.0588 68.6286 52.1848C68.302 52.6785 67.8634 53.2717 67.3128 53.9643C66.7622 54.6568 66.1671 55.274 65.5276 55.816C64.8948 56.3486 64.3504 56.6541 63.8942 56.7325C63.7257 56.7584 63.585 56.7513 63.472 56.7112C63.3578 56.663 63.2671 56.6072 63.1998 56.5436C62.8134 56.1676 62.6807 55.6254 62.8018 54.9168C62.9296 54.1989 63.145 53.41 63.4482 52.5502C63.7068 51.8286 63.8828 51.2101 63.976 50.6947C64.0001 50.5842 64.0112 50.4963 64.0094 50.4308C63.3081 50.8919 62.6057 51.4517 61.9019 52.1103C61.2062 52.7676 60.5183 53.4485 59.838 54.1527C58.975 55.0576 58.0926 55.9161 57.1907 56.7284C56.7561 57.1074 56.3626 57.246 56.0102 57.1441C55.925 57.1243 55.8262 57.0697 55.7139 56.9802C55.6015 56.8907 55.5133 56.7441 55.4491 56.5404C55.3824 56.3206 55.3803 56.0129 55.4427 55.6172C55.552 54.9926 55.7005 54.3824 55.8881 53.7868C56.0703 53.2084 56.2089 52.6408 56.304 52.0841C56.3095 52.0668 56.3111 52.0501 56.3086 52.0341C55.6543 52.4797 55.0126 53.0877 54.3835 53.858C53.7545 54.6283 53.1403 55.4415 52.5409 56.2976L50.7621 58.7521C50.6658 58.8737 50.5534 58.9443 50.425 58.9641C50.3207 58.9801 50.2201 58.9669 50.1232 58.9243C50.0078 58.8681 49.9254 58.7863 49.876 58.6789C49.8254 58.5634 49.8149 58.4418 49.8445 58.3141C50.3662 56.5253 51.4194 54.2933 53.0041 51.6181C53.0831 51.491 53.1902 51.4129 53.3254 51.3839C53.4593 51.3469 53.5893 51.3639 53.7152 51.4349C53.8423 51.5139 53.9204 51.621 53.9494 51.7562C53.9864 51.8901 53.9695 52.02 53.8985 52.146C53.4484 52.9052 53.0299 53.6554 52.6428 54.3967C53.1657 53.6838 53.7058 53.0299 54.2633 52.4349C54.8194 51.8318 55.3994 51.3566 56.0031 51.0091C56.292 50.8579 56.5707 50.8273 56.8392 50.9175C57.0676 51.0138 57.225 51.1826 57.3114 51.4239C57.3774 51.6931 57.386 51.9628 57.3373 52.2332C57.2212 52.8671 57.0699 53.4859 56.8835 54.0896C56.7001 54.6599 56.5603 55.2195 56.4639 55.7682C56.4534 55.8602 56.4451 55.9395 56.4389 56.0062C56.4605 55.9864 56.4821 55.9667 56.5037 55.9469C57.3772 55.1637 58.238 54.3248 59.0862 53.4305C59.7949 52.6972 60.5119 51.9914 61.2372 51.3131C61.9613 50.6267 62.7042 50.036 63.4659 49.541C63.8561 49.3003 64.1993 49.2352 64.4955 49.3457C64.5727 49.3667 64.6594 49.4232 64.7557 49.5152C64.8588 49.5979 64.9412 49.7331 65.0029 49.9207C65.0696 50.2473 65.0683 50.5596 64.9991 50.8577C64.8929 51.4491 64.7049 52.1228 64.4352 52.8789C64.3382 53.1567 64.2327 53.4851 64.1184 53.8641C64.0042 54.2431 63.9122 54.6063 63.8425 54.9538C63.7795 55.2921 63.7764 55.539 63.8332 55.6946C64.2727 55.5613 64.8569 55.1141 65.586 54.353C66.3218 53.5827 67.044 52.6708 67.7527 51.6171Z" fill="#56504E"></path><path d="M70.2682 54.9144C71.1954 54.854 72.191 54.4914 73.2552 53.8266C74.3182 53.1539 75.1429 52.4808 75.7293 51.8074C75.8269 51.6938 75.9451 51.6346 76.084 51.6296C76.2216 51.6167 76.3466 51.655 76.459 51.7445C76.5725 51.842 76.6318 51.9602 76.6367 52.0991C76.6497 52.2367 76.6114 52.3617 76.5219 52.4741C76.1466 52.9179 75.6435 53.3854 75.0126 53.8767C74.3885 54.3588 73.7076 54.7921 72.97 55.1766C72.2323 55.5611 71.5184 55.8064 70.8283 55.9125C70.6438 55.9409 70.4654 55.956 70.2932 55.9579C69.5228 55.9696 68.9151 55.7303 68.4701 55.2402C67.6763 54.3519 67.7413 52.6375 68.6648 50.0968C68.7173 49.9573 68.8053 49.8617 68.9287 49.8098C69.059 49.7487 69.1932 49.7404 69.3315 49.7849C69.463 49.8386 69.5593 49.9305 69.6204 50.0608C69.6802 50.183 69.6839 50.3139 69.6314 50.4534C69.295 51.4169 69.0885 52.1839 69.0119 52.7542C68.9353 53.3246 68.9307 53.7483 68.9979 54.0255C69.072 54.2934 69.1519 54.4659 69.2377 54.543C69.4667 54.8035 69.8102 54.9273 70.2682 54.9144ZM69.7659 47.722C69.9103 47.6998 70.0427 47.7328 70.1631 47.8211C70.2834 47.9093 70.3547 48.0257 70.3769 48.1701C70.3991 48.3146 70.3661 48.447 70.2778 48.5674C70.1896 48.6877 70.0732 48.759 69.9288 48.7812C69.7843 48.8034 69.6519 48.7704 69.5315 48.6821C69.4112 48.5938 69.3399 48.4775 69.3177 48.333C69.2955 48.1886 69.3285 48.0562 69.4168 47.9358C69.5051 47.8155 69.6214 47.7442 69.7659 47.722Z" fill="#56504E"></path><path d="M85.1736 50.0839C84.8501 50.6511 84.356 51.3104 83.6911 52.0615C83.0331 52.8034 82.2911 53.4802 81.4652 54.0919C80.638 54.6955 79.8142 55.081 78.9939 55.2482C78.9698 55.2519 78.9457 55.2556 78.9217 55.2593C78.1673 55.3753 77.522 55.2117 76.9856 54.7685C75.7086 53.6752 75.4282 51.2376 76.1444 47.4557C76.5655 45.2798 77.227 42.9849 78.129 40.5708C79.039 38.1555 80.0246 36.0448 81.0857 34.2387C82.1537 32.4234 83.1278 31.3331 84.0081 30.9677C84.4395 30.8356 84.7911 30.9582 85.0626 31.3353C85.462 31.9557 85.4718 33.248 85.0921 35.2121C84.7123 37.1762 83.8526 39.5181 82.513 42.2377C81.1802 44.948 79.2742 47.7506 76.7951 50.6454C76.75 52.3281 77.0363 53.4423 77.6542 53.988C77.9461 54.2306 78.3322 54.3109 78.8125 54.2288C79.4575 54.0967 80.1378 53.7662 80.8532 53.2373C81.5767 52.7071 82.2443 52.1074 82.856 51.4384C83.4746 50.76 83.9462 50.1412 84.2709 49.582C84.3499 49.4548 84.4564 49.3728 84.5903 49.3357C84.7243 49.2987 84.8542 49.3157 84.9801 49.3867C85.1061 49.4577 85.1875 49.5601 85.2246 49.6941C85.2616 49.828 85.2446 49.958 85.1736 50.0839ZM77.1592 47.6446C77.0764 48.0681 77.0113 48.4724 76.9637 48.8575C79.062 46.2102 80.6735 43.6829 81.7983 41.2756C82.9311 38.8671 83.6769 36.8262 84.0356 35.1528C84.3943 33.4794 84.4663 32.4251 84.2515 31.9899C83.5892 32.33 82.7879 33.3157 81.8477 34.9471C80.9063 36.5705 80.0028 38.5207 79.1373 40.7977C78.2717 43.0747 77.6124 45.3571 77.1592 47.6446Z" fill="#56504E"></path><path d="M96.2401 47.5318C96.3191 47.4047 96.4262 47.3266 96.5614 47.2976C96.6954 47.2605 96.8259 47.2815 96.9531 47.3606C97.0802 47.4396 97.1583 47.5467 97.1873 47.6819C97.2163 47.817 97.1953 47.9476 97.1243 48.0735C96.4434 49.1475 95.6585 50.0527 94.7696 50.789C93.8887 51.5242 93.0054 52.0296 92.1196 52.3055C91.2406 52.5721 90.4721 52.5425 89.8141 52.2165C89.6283 52.1301 89.4425 51.9902 89.2567 51.797C89.0697 51.5958 88.9216 51.327 88.8124 50.9906C88.4938 51.4831 88.1463 51.9473 87.7697 52.383C87.4685 52.7744 87.0774 53.0892 86.5965 53.3274C86.457 53.3817 86.3191 53.4194 86.1827 53.4403C85.6932 53.5156 85.2549 53.39 84.8679 53.0634C84.3852 52.5955 84.2041 51.8717 84.3245 50.8922C84.4746 49.8916 84.8234 48.9549 85.3709 48.0821C85.9173 47.2013 86.4914 46.5544 87.0932 46.1415C87.726 45.7156 88.3142 45.5348 88.858 45.599C89.4296 45.6836 89.8632 45.9661 90.1589 46.4463C90.2811 46.4932 90.3715 46.5738 90.4301 46.688C90.4875 46.7942 90.502 46.9151 90.4736 47.0509C90.3088 47.7417 90.0909 48.4077 89.8198 49.049C89.5753 50.2366 89.7321 50.9887 90.2901 51.3054C90.9684 51.6036 91.8919 51.4123 93.0604 50.7315C94.2369 50.0495 95.2969 48.9829 96.2401 47.5318ZM88.8245 48.7462C88.9227 48.2629 89.0931 47.715 89.3357 47.1027C89.2826 46.9712 89.2005 46.8648 89.0894 46.7833C88.9771 46.6938 88.8583 46.6422 88.733 46.6286C88.6583 46.6237 88.5768 46.628 88.4885 46.6416C88.2558 46.6774 87.9827 46.7974 87.6691 47.0017C87.1641 47.3504 86.682 47.901 86.2227 48.6534C85.7635 49.4059 85.4745 50.1978 85.356 51.0292C85.28 51.657 85.3534 52.0811 85.5763 52.3014C85.6713 52.3854 85.7729 52.4314 85.8809 52.4394C85.9957 52.4382 86.0988 52.4141 86.1901 52.3672C86.4802 52.224 86.746 52.0024 86.9874 51.7025C87.7405 50.8309 88.3529 49.8455 88.8245 48.7462Z" fill="#56504E"></path><path d="M145.473 1.67755C146.923 1.06839 148.224 0.794396 149.376 0.855571C150.527 0.916745 151.45 1.31277 152.146 2.04366C152.572 2.52021 152.869 3.03719 153.037 3.59459C153.212 4.14273 153.326 4.64272 153.379 5.09457C153.519 6.27232 153.538 7.43988 153.437 8.59725C153.344 9.75338 153.205 10.8836 153.022 11.9879C152.546 14.9279 152.003 17.8043 151.392 20.6172C150.789 23.4288 150.183 26.0848 149.574 28.5854C149.544 28.7131 149.514 28.8369 149.483 28.9566C149.459 29.0671 149.435 29.1776 149.411 29.2881C149.779 29.2233 150.151 29.1619 150.529 29.1039C150.903 29.5064 150.933 29.9166 150.619 30.3344C150.115 30.4202 149.606 30.5026 149.092 30.5816C145.918 43.7526 142.422 56.8295 138.602 69.8123C138.502 70.066 138.339 70.2101 138.115 70.2446C138.026 70.2582 137.935 70.2517 137.84 70.2252C137.677 70.1764 137.555 70.0801 137.476 69.9363C137.396 69.7925 137.38 69.6347 137.428 69.4631C141.192 56.6612 144.643 43.768 147.78 30.7833C136.707 32.5438 125.672 34.4749 114.676 36.5767C113.163 39.1259 111.789 41.7316 110.556 44.3938C109.914 45.774 109.275 47.285 108.641 48.9269C108.014 50.5676 107.47 52.294 107.01 54.1063C106.55 55.9266 106.262 57.7904 106.145 59.6978C106.092 60.4206 106.118 61.3693 106.225 62.544C106.333 63.7267 106.636 64.9245 107.135 66.1375C107.642 67.3492 108.46 68.3693 109.589 69.1977C111.246 70.2984 113.239 70.6571 115.571 70.2739C117.648 69.8969 119.714 69.0905 121.766 67.8549C126.396 65.0071 130.257 61.292 133.347 56.7096C136.437 52.1272 138.495 47.0793 139.52 41.5659C139.464 41.5745 139.406 41.5752 139.348 41.5677C139.178 41.5363 139.043 41.4585 138.942 41.3344C138.848 41.2011 138.812 41.0464 138.834 40.8705C138.892 40.5002 139.11 40.2653 139.489 40.1659C139.686 40.111 139.88 40.1181 140.072 40.1873C140.271 40.2552 140.432 40.37 140.556 40.5317C140.707 40.7632 140.784 40.9978 140.787 41.2354C140.79 41.465 140.773 41.6484 140.736 41.7854C139.68 47.4679 137.556 52.6738 134.365 57.4031C131.174 62.1324 127.189 65.9695 122.409 68.9142C120.221 70.2282 118.012 71.0855 115.782 71.4859C113.121 71.9197 110.821 71.4931 108.882 70.206C107.483 69.23 106.442 67.8293 105.759 66.004C105.076 64.1787 104.795 62.0575 104.916 59.6403C105.038 57.6583 105.334 55.7318 105.802 53.8609C106.27 51.99 106.826 50.2123 107.47 48.5278C108.123 46.8421 108.78 45.2912 109.441 43.8752C110.539 41.505 111.748 39.1709 113.071 36.8729L113.901 35.4637C116.127 31.7781 118.407 28.3595 120.74 25.2079C123.081 22.055 125.21 19.3454 127.129 17.0789C129.056 14.8111 130.509 13.1501 131.488 12.0959C135.959 7.30124 140.62 3.82845 145.473 1.67755ZM151.809 11.7924C151.984 10.7388 152.118 9.66257 152.212 8.56385C152.305 7.45709 152.283 6.35157 152.146 5.24727C152.011 4.15902 151.713 3.37106 151.252 2.8834C150.759 2.40067 150.172 2.13768 149.492 2.09443C148.82 2.04995 148.16 2.11442 147.513 2.28783C146.867 2.46125 146.351 2.63498 145.967 2.80903C141.269 4.89512 136.748 8.26823 132.405 12.9283C131.459 13.9363 130.072 15.5214 128.245 17.6835C126.416 19.8377 124.38 22.4097 122.137 25.3996C119.894 28.3895 117.688 31.6409 115.517 35.1536C126.348 33.1018 137.205 31.2145 148.087 29.4917C148.133 29.3121 148.18 29.1325 148.226 28.9529C148.274 28.7319 148.327 28.5143 148.384 28.3001C148.979 25.8101 149.579 23.1673 150.184 20.3717C150.797 17.5749 151.339 14.7152 151.809 11.7924Z" fill="#56504E"></path><path d="M168.91 36.0603C168.997 35.9319 169.109 35.8572 169.245 35.8363C169.38 35.8072 169.511 35.8282 169.637 35.8992C169.757 35.9875 169.828 36.0999 169.849 36.2363C169.878 36.3715 169.857 36.502 169.786 36.6279C169.459 37.1217 169.021 37.7149 168.47 38.4074C167.919 39.1 167.324 39.7172 166.685 40.2591C166.052 40.7918 165.508 41.0973 165.051 41.1757C164.883 41.2016 164.742 41.1945 164.629 41.1544C164.515 41.1062 164.424 41.0503 164.357 40.9868C163.971 40.6108 163.838 40.0685 163.959 39.3599C164.087 38.6421 164.302 37.8532 164.605 36.9934C164.864 36.2718 165.04 35.6533 165.133 35.1379C165.157 35.0274 165.169 34.9394 165.167 34.874C164.465 35.3351 163.763 35.8949 163.059 36.5535C162.364 37.2108 161.676 37.8916 160.995 38.5959C160.132 39.5008 159.25 40.3593 158.348 41.1716C157.913 41.5506 157.52 41.6891 157.167 41.5873C157.082 41.5675 156.983 41.5129 156.871 41.4234C156.759 41.3339 156.671 41.1872 156.606 40.9835C156.54 40.7638 156.538 40.4561 156.6 40.0604C156.709 39.4358 156.858 38.8256 157.045 38.2299C157.228 37.6516 157.366 37.084 157.461 36.5272C157.467 36.51 157.468 36.4933 157.466 36.4772C156.812 36.9229 156.17 37.5308 155.541 38.3012C154.912 39.0715 154.298 39.8847 153.698 40.7408L151.919 43.1953C151.823 43.3169 151.711 43.3875 151.582 43.4073C151.478 43.4233 151.377 43.41 151.28 43.3674C151.165 43.3113 151.083 43.2295 151.033 43.1221C150.983 43.0066 150.972 42.885 151.002 42.7573C151.523 40.9684 152.577 38.7365 154.161 36.0613C154.24 35.9342 154.347 35.8561 154.483 35.8271C154.617 35.7901 154.747 35.807 154.872 35.878C155 35.9571 155.078 36.0642 155.107 36.1993C155.144 36.3333 155.127 36.4632 155.056 36.5891C154.606 37.3484 154.187 38.0986 153.8 38.8399C154.323 38.127 154.863 37.4731 155.421 36.878C155.977 36.275 156.557 35.7997 157.16 35.4523C157.449 35.301 157.728 35.2705 157.996 35.3606C158.225 35.4569 158.382 35.6258 158.469 35.8671C158.535 36.1363 158.543 36.406 158.495 36.6764C158.378 37.3103 158.227 37.9291 158.041 38.5328C157.857 39.1031 157.718 39.6627 157.621 40.2114C157.611 40.3034 157.602 40.3827 157.596 40.4494C157.618 40.4296 157.639 40.4099 157.661 40.3901C158.534 39.6068 159.395 38.768 160.243 37.8737C160.952 37.1404 161.669 36.4346 162.394 35.7562C163.119 35.0699 163.861 34.4792 164.623 33.9842C165.013 33.7435 165.357 33.6784 165.653 33.7889C165.73 33.8099 165.817 33.8664 165.913 33.9583C166.016 34.0411 166.098 34.1762 166.16 34.3639C166.227 34.6904 166.226 35.0028 166.156 35.3009C166.05 35.8922 165.862 36.566 165.592 37.3221C165.496 37.5999 165.39 37.9283 165.276 38.3073C165.162 38.6863 165.07 39.0495 165 39.397C164.937 39.7353 164.934 39.9822 164.99 40.1377C165.43 40.0044 166.014 39.5573 166.743 38.7962C167.479 38.0259 168.201 37.1139 168.91 36.0603Z" fill="#56504E"></path><path d="M180.281 34.6073C180.36 34.4801 180.467 34.402 180.602 34.373C180.736 34.336 180.867 34.357 180.994 34.436C181.121 34.515 181.199 34.6221 181.228 34.7573C181.257 34.8925 181.236 35.0231 181.165 35.149C180.484 36.223 179.699 37.1282 178.811 37.8645C177.93 38.5996 177.046 39.1051 176.161 39.381C175.282 39.6476 174.513 39.6179 173.855 39.292C173.669 39.2055 173.483 39.0657 173.298 38.8725C173.111 38.6713 172.963 38.4024 172.853 38.066C172.535 38.5586 172.187 39.0228 171.811 39.4585C171.509 39.8498 171.118 40.1646 170.638 40.4029C170.498 40.4572 170.36 40.4948 170.224 40.5158C169.734 40.5911 169.296 40.4654 168.909 40.1389C168.426 39.671 168.245 38.9472 168.365 37.9676C168.516 36.967 168.864 36.0304 169.412 35.1576C169.958 34.2768 170.532 33.6299 171.134 33.217C171.767 32.7911 172.355 32.6103 172.899 32.6745C173.471 32.7591 173.904 33.0415 174.2 33.5218C174.322 33.5687 174.412 33.6493 174.471 33.7635C174.528 33.8696 174.543 33.9906 174.515 34.1264C174.35 34.8171 174.132 35.4831 173.861 36.1245C173.616 37.3121 173.773 38.0642 174.331 38.3809C175.009 38.6791 175.933 38.4878 177.101 37.807C178.278 37.125 179.338 36.0584 180.281 34.6073ZM172.865 35.8216C172.964 35.3383 173.134 34.7905 173.377 34.1782C173.324 34.0467 173.241 33.9402 173.13 33.8588C173.018 33.7692 172.899 33.7177 172.774 33.7041C172.699 33.6992 172.618 33.7035 172.529 33.7171C172.297 33.7528 172.024 33.8729 171.71 34.0772C171.205 34.4259 170.723 34.9765 170.264 35.7289C169.804 36.4813 169.515 37.2733 169.397 38.1047C169.321 38.7325 169.394 39.1565 169.617 39.3769C169.712 39.4609 169.814 39.5069 169.922 39.5149C170.037 39.5137 170.14 39.4896 170.231 39.4427C170.521 39.2995 170.787 39.0779 171.028 38.7779C171.781 37.9064 172.394 36.921 172.865 35.8216Z" fill="#56504E"></path><path d="M187.076 34.0058C187.215 34.0503 187.314 34.1336 187.373 34.2558C187.441 34.3768 187.457 34.5058 187.421 34.6429C187.135 35.5657 186.743 36.3283 186.245 36.9307C185.753 37.5239 185.211 37.9809 184.62 38.3019C184.027 38.6148 183.462 38.8126 182.924 38.8953C182.82 38.9113 182.719 38.9227 182.621 38.9295C181.555 38.9949 180.853 38.7251 180.513 38.1202C180.244 37.4881 180.225 36.8625 180.459 36.2434C180.684 35.6255 180.936 35.1021 181.215 34.6731C181.223 34.6718 181.231 34.6666 181.238 34.6573C181.236 34.6493 181.24 34.6447 181.248 34.6434C180.94 34.5101 180.663 34.3391 180.417 34.1305C180.072 33.8058 179.885 33.5017 179.858 33.2184C179.853 33.1863 179.849 33.1582 179.845 33.1341C179.79 32.8798 179.863 32.5564 180.065 32.1638C180.259 31.7645 180.624 31.4167 181.162 31.1204C181.515 30.9099 181.876 30.8504 182.243 30.9418C182.508 31.0078 182.697 31.139 182.809 31.3353C182.925 31.5557 182.957 31.793 182.906 32.0473C182.855 32.3016 182.757 32.518 182.612 32.6964C182.285 33.0834 181.922 33.3938 181.523 33.6278C181.701 33.7154 181.892 33.7846 182.097 33.8352C182.242 33.8704 182.352 33.9478 182.428 34.0676C182.496 34.1886 182.517 34.321 182.489 34.4648C182.428 34.6549 182.302 34.9043 182.112 35.2129C181.879 35.5691 181.67 35.9709 181.484 36.4184C181.298 36.8659 181.283 37.2789 181.44 37.6573C181.466 37.719 181.57 37.781 181.752 37.8434C181.942 37.9045 182.204 37.9218 182.536 37.8953C183.244 37.8521 183.971 37.5556 184.716 37.0056C185.46 36.4476 186.03 35.5631 186.427 34.3521C186.472 34.2138 186.554 34.1107 186.675 34.0428C186.796 33.975 186.93 33.9626 187.076 34.0058ZM180.878 32.8027C181.228 32.6176 181.538 32.3645 181.809 32.0436C181.837 32.0145 181.856 31.9787 181.866 31.9361C181.818 31.9436 181.76 31.9689 181.693 32.0121C181.235 32.288 180.963 32.5515 180.878 32.8027Z" fill="#56504E"></path><path d="M198.24 31.8454C198.319 31.7183 198.426 31.6402 198.561 31.6112C198.695 31.5741 198.826 31.5951 198.953 31.6742C199.08 31.7532 199.158 31.8603 199.187 31.9955C199.216 32.1306 199.195 32.2612 199.124 32.3871C198.443 33.4611 197.658 34.3663 196.769 35.1026C195.889 35.8378 195.005 36.3432 194.119 36.6191C193.24 36.8857 192.472 36.8561 191.814 36.5301C191.628 36.4437 191.442 36.3039 191.257 36.1106C191.07 35.9094 190.921 35.6406 190.812 35.3042C190.494 35.7967 190.146 36.2609 189.77 36.6966C189.468 37.088 189.077 37.4028 188.596 37.641C188.457 37.6953 188.319 37.733 188.183 37.7539C187.693 37.8292 187.255 37.7036 186.868 37.377C186.385 36.9091 186.204 36.1854 186.324 35.2058C186.474 34.2052 186.823 33.2685 187.371 32.3957C187.917 31.5149 188.491 30.868 189.093 30.4551C189.726 30.0292 190.314 29.8484 190.858 29.9126C191.429 29.9972 191.863 30.2797 192.159 30.7599C192.281 30.8068 192.371 30.8874 192.43 31.0016C192.487 31.1078 192.502 31.2287 192.473 31.3645C192.309 32.0553 192.091 32.7213 191.82 33.3626C191.575 34.5502 191.732 35.3024 192.29 35.619C192.968 35.9172 193.892 35.7259 195.06 35.0451C196.237 34.3631 197.297 33.2966 198.24 31.8454ZM190.824 33.0598C190.923 32.5765 191.093 32.0286 191.336 31.4163C191.282 31.2848 191.2 31.1784 191.089 31.0969C190.977 31.0074 190.858 30.9558 190.733 30.9422C190.658 30.9373 190.577 30.9416 190.488 30.9552C190.256 30.991 189.983 31.111 189.669 31.3153C189.164 31.664 188.682 32.2146 188.223 32.967C187.763 33.7195 187.474 34.5114 187.356 35.3428C187.28 35.9706 187.353 36.3947 187.576 36.615C187.671 36.699 187.773 36.745 187.881 36.753C187.996 36.7518 188.099 36.7277 188.19 36.6808C188.48 36.5376 188.746 36.316 188.987 36.0161C189.74 35.1445 190.353 34.1591 190.824 33.0598Z" fill="#56504E"></path><path d="M207.877 31.2136C207.553 31.7808 207.059 32.44 206.394 33.1912C205.736 33.9331 204.994 34.6099 204.168 35.2216C203.341 35.8252 202.517 36.2107 201.697 36.3779C201.673 36.3816 201.649 36.3853 201.625 36.389C200.87 36.505 200.225 36.3414 199.689 35.8982C198.412 34.8049 198.131 32.3673 198.848 28.5854C199.269 26.4095 199.93 24.1146 200.832 21.7005C201.742 19.2852 202.728 17.1745 203.789 15.3684C204.857 13.5531 205.831 12.4627 206.711 12.0974C207.143 11.9653 207.494 12.0879 207.766 12.465C208.165 13.0854 208.175 14.3776 207.795 16.3418C207.415 18.3059 206.556 20.6477 205.216 23.3673C203.883 26.0777 201.977 28.8803 199.498 31.7751C199.453 33.4578 199.739 34.572 200.357 35.1177C200.649 35.3603 201.035 35.4405 201.516 35.3585C202.161 35.2264 202.841 34.8959 203.556 34.3669C204.28 33.8367 204.947 33.2371 205.559 32.568C206.178 31.8897 206.649 31.2709 206.974 30.7117C207.053 30.5845 207.16 30.5024 207.293 30.4654C207.427 30.4284 207.557 30.4454 207.683 30.5163C207.809 30.5873 207.891 30.6898 207.928 30.8238C207.965 30.9577 207.948 31.0876 207.877 31.2136ZM199.862 28.7743C199.78 29.1977 199.714 29.602 199.667 29.9872C201.765 27.3399 203.377 24.8126 204.501 22.4053C205.634 19.9968 206.38 17.9558 206.739 16.2824C207.097 14.6091 207.169 13.5548 206.955 13.1196C206.292 13.4597 205.491 14.4454 204.551 16.0768C203.609 17.7001 202.706 19.6503 201.84 21.9274C200.975 24.2044 200.316 26.4867 199.862 28.7743Z" fill="#56504E"></path></svg>