<svg xmlns="http://www.w3.org/2000/svg" width="184" height="184" viewBox="0 0 184 184" fill="none"><rect width="184" height="184" rx="28" fill="#FC6235"></rect><path d="M130.841 69.0441V116.299C130.841 121.057 126.976 124.883 122.212 124.883H98.3529V76.097C98.3529 72.8034 95.6844 70.1719 92.4205 70.1719C89.1565 70.1719 86.488 72.8034 86.488 76.097V124.883H62.629C57.8651 124.883 54 121.057 54 116.299V69.0441C54 66.2162 54.1685 63.321 54.5337 60.4258C54.8651 57.4633 55.5674 54.7028 56.6011 52.0713C57.6685 49.4061 59.0673 46.9149 60.7976 44.5527C62.5953 42.2242 64.8986 40.1931 67.73 38.493C70.5951 36.8266 74.0276 35.4632 78.0612 34.4981C82.0949 33.4657 86.8925 33 92.4205 33C97.9821 33 102.752 33.4657 106.78 34.4981C110.847 35.4632 114.28 36.8266 117.111 38.493C119.976 40.1875 122.24 42.2186 124.043 44.5527C125.807 46.9149 127.206 49.4117 128.24 52.0713C129.274 54.7028 129.97 57.4633 130.307 60.4258C130.672 63.321 130.841 66.2162 130.841 69.0441Z" fill="#FFFAF7"></path><path d="M98.3528 124.883V145.447C98.3528 148.74 95.6843 151.372 92.4204 151.372C89.1564 151.372 86.4879 148.74 86.4879 145.447V124.883H98.3528Z" fill="#FFFAF7"></path></svg>