<svg xmlns="http://www.w3.org/2000/svg" width="124" height="48" viewBox="0 0 124 48" fill="none"><path d="M31.1591 14.6159V33.7777C31.1591 35.7071 29.5918 37.2588 27.66 37.2588H17.9851V17.4758C17.9851 16.1403 16.9031 15.0732 15.5795 15.0732C14.256 15.0732 13.1739 16.1403 13.1739 17.4758V37.2588H3.49907C1.56729 37.2588 0 35.7071 0 33.7777V14.6159C0 13.4692 0.0683406 12.2952 0.216413 11.1212C0.350818 9.91989 0.635575 8.80049 1.05473 7.73342C1.48756 6.6527 2.0548 5.64251 2.75643 4.68465C3.48541 3.74044 4.4194 2.91681 5.56754 2.22743C6.72934 1.55169 8.12122 0.998818 9.75685 0.607483C11.3925 0.188845 13.3379 0 15.5795 0C17.8348 0 19.7688 0.188845 21.4022 0.607483C23.0515 0.998818 24.4434 1.55169 25.5915 2.22743C26.7533 2.91454 27.6714 3.73816 28.4026 4.68465C29.1179 5.64251 29.6852 6.65497 30.1043 7.73342C30.5235 8.80049 30.806 9.91989 30.9426 11.1212C31.0907 12.2952 31.1591 13.4692 31.1591 14.6159Z" fill="#FC6235"></path><path d="M17.9851 37.2588V45.5974C17.9851 46.933 16.903 48 15.5795 48C14.256 48 13.1739 46.933 13.1739 45.5974V37.2588H17.9851Z" fill="#FC6235"></path><path d="M77.3181 14.6159V33.7777C77.3181 35.7071 75.7508 37.2588 73.819 37.2588H64.1442V17.4758C64.1442 16.1403 63.0621 15.0732 61.7386 15.0732C60.415 15.0732 59.333 16.1403 59.333 17.4758V37.2588H49.6581C47.7264 37.2588 46.1591 35.7071 46.1591 33.7777V14.6159C46.1591 13.4692 46.2274 12.2952 46.3755 11.1212C46.5099 9.91989 46.7946 8.80049 47.2138 7.73342C47.6466 6.6527 48.2139 5.64251 48.9155 4.68465C49.6445 3.74044 50.5785 2.91681 51.7266 2.22743C52.8884 1.55169 54.2803 0.998818 55.9159 0.607483C57.5515 0.188845 59.497 0 61.7386 0C63.9938 0 65.9279 0.188845 67.5613 0.607483C69.2106 0.998818 70.6025 1.55169 71.7506 2.22743C72.9124 2.91454 73.8304 3.73816 74.5617 4.68465C75.277 5.64251 75.8442 6.65497 76.2634 7.73342C76.6825 8.80049 76.965 9.91989 77.1017 11.1212C77.2498 12.2952 77.3181 13.4692 77.3181 14.6159Z" fill="#FC6235"></path><path d="M64.1442 37.2588V45.5974C64.1442 46.933 63.0621 48 61.7386 48C60.415 48 59.3329 46.933 59.3329 45.5974V37.2588H64.1442Z" fill="#FC6235"></path><path d="M123.477 14.6159V33.7777C123.477 35.7071 121.91 37.2588 119.978 37.2588H110.303V17.4758C110.303 16.1403 109.221 15.0732 107.898 15.0732C106.574 15.0732 105.492 16.1403 105.492 17.4758V37.2588H95.8172C93.8854 37.2588 92.3181 35.7071 92.3181 33.7777V14.6159C92.3181 13.4692 92.3865 12.2952 92.5345 11.1212C92.6689 9.91989 92.9537 8.80049 93.3728 7.73342C93.8057 6.6527 94.3729 5.64251 95.0745 4.68465C95.8035 3.74044 96.7375 2.91681 97.8857 2.22743C99.0475 1.55169 100.439 0.998818 102.075 0.607483C103.711 0.188845 105.656 0 107.898 0C110.153 0 112.087 0.188845 113.72 0.607483C115.37 0.998818 116.762 1.55169 117.91 2.22743C119.071 2.91454 119.989 3.73816 120.721 4.68465C121.436 5.64251 122.003 6.65497 122.422 7.73342C122.842 8.80049 123.124 9.91989 123.261 11.1212C123.409 12.2952 123.477 13.4692 123.477 14.6159Z" fill="#FC6235"></path><path d="M110.303 37.2588V45.5974C110.303 46.933 109.221 48 107.898 48C106.574 48 105.492 46.933 105.492 45.5974V37.2588H110.303Z" fill="#FC6235"></path></svg>