<svg xmlns="http://www.w3.org/2000/svg" width="1440" height="48" viewBox="0 0 1440 48" fill="none"><path d="M50.3181 14.6159V33.7777C50.3181 35.7071 48.7508 37.2588 46.819 37.2588H37.1442V17.4758C37.1442 16.1403 36.0621 15.0732 34.7386 15.0732C33.415 15.0732 32.333 16.1403 32.333 17.4758V37.2588H22.6581C20.7264 37.2588 19.1591 35.7071 19.1591 33.7777V14.6159C19.1591 13.4692 19.2274 12.2952 19.3755 11.1212C19.5099 9.91989 19.7946 8.80049 20.2138 7.73342C20.6466 6.6527 21.2139 5.64251 21.9155 4.68465C22.6445 3.74044 23.5785 2.91681 24.7266 2.22743C25.8884 1.55169 27.2803 0.998818 28.9159 0.607483C30.5515 0.188845 32.497 0 34.7386 0C36.9938 0 38.9279 0.188845 40.5613 0.607483C42.2106 0.998818 43.6025 1.55169 44.7506 2.22743C45.9124 2.91454 46.8304 3.73816 47.5617 4.68465C48.277 5.64251 48.8442 6.65497 49.2634 7.73342C49.6825 8.80049 49.965 9.91989 50.1017 11.1212C50.2498 12.2952 50.3181 13.4692 50.3181 14.6159Z" fill="#FC6235"></path><path d="M37.1442 37.2588V45.5974C37.1442 46.933 36.0621 48 34.7386 48C33.415 48 32.3329 46.933 32.3329 45.5974V37.2588H37.1442Z" fill="#FC6235"></path><path d="M126.477 14.6159V33.7777C126.477 35.7071 124.91 37.2588 122.978 37.2588H113.303V17.4758C113.303 16.1403 112.221 15.0732 110.898 15.0732C109.574 15.0732 108.492 16.1403 108.492 17.4758V37.2588H98.8172C96.8854 37.2588 95.3181 35.7071 95.3181 33.7777V14.6159C95.3181 13.4692 95.3865 12.2952 95.5345 11.1212C95.6689 9.91989 95.9537 8.80049 96.3728 7.73342C96.8057 6.6527 97.3729 5.64251 98.0745 4.68465C98.8035 3.74044 99.7375 2.91681 100.886 2.22743C102.047 1.55169 103.439 0.998818 105.075 0.607483C106.711 0.188845 108.656 0 110.898 0C113.153 0 115.087 0.188845 116.72 0.607483C118.37 0.998818 119.762 1.55169 120.91 2.22743C122.071 2.91454 122.989 3.73816 123.721 4.68465C124.436 5.64251 125.003 6.65497 125.422 7.73342C125.842 8.80049 126.124 9.91989 126.261 11.1212C126.409 12.2952 126.477 13.4692 126.477 14.6159Z" fill="#FC6235"></path><path d="M113.303 37.2588V45.5974C113.303 46.933 112.221 48 110.898 48C109.574 48 108.492 46.933 108.492 45.5974V37.2588H113.303Z" fill="#FC6235"></path><path d="M202.636 14.6159V33.7777C202.636 35.7071 201.069 37.2588 199.137 37.2588H189.462V17.4758C189.462 16.1403 188.38 15.0732 187.057 15.0732C185.733 15.0732 184.651 16.1403 184.651 17.4758V37.2588H174.976C173.044 37.2588 171.477 35.7071 171.477 33.7777V14.6159C171.477 13.4692 171.546 12.2952 171.694 11.1212C171.828 9.91989 172.113 8.80049 172.532 7.73342C172.965 6.6527 173.532 5.64251 174.234 4.68465C174.963 3.74044 175.897 2.91681 177.045 2.22743C178.207 1.55169 179.598 0.998818 181.234 0.607483C182.87 0.188845 184.815 0 187.057 0C189.312 0 191.246 0.188845 192.879 0.607483C194.529 0.998818 195.921 1.55169 197.069 2.22743C198.231 2.91454 199.149 3.73816 199.88 4.68465C200.595 5.64251 201.162 6.65497 201.582 7.73342C202.001 8.80049 202.283 9.91989 202.42 11.1212C202.568 12.2952 202.636 13.4692 202.636 14.6159Z" fill="#FC6235"></path><path d="M189.462 37.2588V45.5974C189.462 46.933 188.38 48 187.057 48C185.733 48 184.651 46.933 184.651 45.5974V37.2588H189.462Z" fill="#FC6235"></path><path d="M278.795 14.6159V33.7777C278.795 35.7071 277.228 37.2588 275.296 37.2588H265.621V17.4758C265.621 16.1403 264.539 15.0732 263.216 15.0732C261.892 15.0732 260.81 16.1403 260.81 17.4758V37.2588H251.135C249.204 37.2588 247.636 35.7071 247.636 33.7777V14.6159C247.636 13.4692 247.705 12.2952 247.853 11.1212C247.987 9.91989 248.272 8.80049 248.691 7.73342C249.124 6.6527 249.691 5.64251 250.393 4.68465C251.122 3.74044 252.056 2.91681 253.204 2.22743C254.366 1.55169 255.757 0.998818 257.393 0.607483C259.029 0.188845 260.974 0 263.216 0C265.471 0 267.405 0.188845 269.038 0.607483C270.688 0.998818 272.08 1.55169 273.228 2.22743C274.39 2.91454 275.308 3.73816 276.039 4.68465C276.754 5.64251 277.321 6.65497 277.741 7.73342C278.16 8.80049 278.442 9.91989 278.579 11.1212C278.727 12.2952 278.795 13.4692 278.795 14.6159Z" fill="#FC6235"></path><path d="M265.621 37.2588V45.5974C265.621 46.933 264.539 48 263.216 48C261.892 48 260.81 46.933 260.81 45.5974V37.2588H265.621Z" fill="#FC6235"></path><path d="M354.954 14.6159V33.7777C354.954 35.7071 353.387 37.2588 351.455 37.2588H341.78V17.4758C341.78 16.1403 340.698 15.0732 339.375 15.0732C338.051 15.0732 336.969 16.1403 336.969 17.4758V37.2588H327.294C325.363 37.2588 323.795 35.7071 323.795 33.7777V14.6159C323.795 13.4692 323.864 12.2952 324.012 11.1212C324.146 9.91989 324.431 8.80049 324.85 7.73342C325.283 6.6527 325.85 5.64251 326.552 4.68465C327.281 3.74044 328.215 2.91681 329.363 2.22743C330.525 1.55169 331.917 0.998818 333.552 0.607483C335.188 0.188845 337.133 0 339.375 0C341.63 0 343.564 0.188845 345.197 0.607483C346.847 0.998818 348.239 1.55169 349.387 2.22743C350.549 2.91454 351.467 3.73816 352.198 4.68465C352.913 5.64251 353.48 6.65497 353.9 7.73342C354.319 8.80049 354.601 9.91989 354.738 11.1212C354.886 12.2952 354.954 13.4692 354.954 14.6159Z" fill="#FC6235"></path><path d="M341.78 37.2588V45.5974C341.78 46.933 340.698 48 339.375 48C338.051 48 336.969 46.933 336.969 45.5974V37.2588H341.78Z" fill="#FC6235"></path><path d="M431.113 14.6159V33.7777C431.113 35.7071 429.546 37.2588 427.614 37.2588H417.939V17.4758C417.939 16.1403 416.857 15.0732 415.534 15.0732C414.21 15.0732 413.128 16.1403 413.128 17.4758V37.2588H403.453C401.522 37.2588 399.954 35.7071 399.954 33.7777V14.6159C399.954 13.4692 400.023 12.2952 400.171 11.1212C400.305 9.91989 400.59 8.80049 401.009 7.73342C401.442 6.6527 402.009 5.64251 402.711 4.68465C403.44 3.74044 404.374 2.91681 405.522 2.22743C406.684 1.55169 408.076 0.998818 409.711 0.607483C411.347 0.188845 413.292 0 415.534 0C417.789 0 419.723 0.188845 421.357 0.607483C423.006 0.998818 424.398 1.55169 425.546 2.22743C426.708 2.91454 427.626 3.73816 428.357 4.68465C429.072 5.64251 429.64 6.65497 430.059 7.73342C430.478 8.80049 430.76 9.91989 430.897 11.1212C431.045 12.2952 431.113 13.4692 431.113 14.6159Z" fill="#FC6235"></path><path d="M417.94 37.2588V45.5974C417.94 46.933 416.857 48 415.534 48C414.21 48 413.128 46.933 413.128 45.5974V37.2588H417.94Z" fill="#FC6235"></path><path d="M507.272 14.6159V33.7777C507.272 35.7071 505.705 37.2588 503.773 37.2588H494.099V17.4758C494.099 16.1403 493.016 15.0732 491.693 15.0732C490.369 15.0732 489.287 16.1403 489.287 17.4758V37.2588H479.612C477.681 37.2588 476.113 35.7071 476.113 33.7777V14.6159C476.113 13.4692 476.182 12.2952 476.33 11.1212C476.464 9.91989 476.749 8.80049 477.168 7.73342C477.601 6.6527 478.168 5.64251 478.87 4.68465C479.599 3.74044 480.533 2.91681 481.681 2.22743C482.843 1.55169 484.235 0.998818 485.87 0.607483C487.506 0.188845 489.451 0 491.693 0C493.948 0 495.882 0.188845 497.516 0.607483C499.165 0.998818 500.557 1.55169 501.705 2.22743C502.867 2.91454 503.785 3.73816 504.516 4.68465C505.231 5.64251 505.799 6.65497 506.218 7.73342C506.637 8.80049 506.919 9.91989 507.056 11.1212C507.204 12.2952 507.272 13.4692 507.272 14.6159Z" fill="#FC6235"></path><path d="M494.099 37.2588V45.5974C494.099 46.933 493.017 48 491.693 48C490.369 48 489.287 46.933 489.287 45.5974V37.2588H494.099Z" fill="#FC6235"></path><path d="M583.432 14.6159V33.7777C583.432 35.7071 581.864 37.2588 579.932 37.2588H570.258V17.4758C570.258 16.1403 569.176 15.0732 567.852 15.0732C566.528 15.0732 565.446 16.1403 565.446 17.4758V37.2588H555.772C553.84 37.2588 552.272 35.7071 552.272 33.7777V14.6159C552.272 13.4692 552.341 12.2952 552.489 11.1212C552.623 9.91989 552.908 8.80049 553.327 7.73342C553.76 6.6527 554.327 5.64251 555.029 4.68465C555.758 3.74044 556.692 2.91681 557.84 2.22743C559.002 1.55169 560.394 0.998818 562.029 0.607483C563.665 0.188845 565.61 0 567.852 0C570.107 0 572.041 0.188845 573.675 0.607483C575.324 0.998818 576.716 1.55169 577.864 2.22743C579.026 2.91454 579.944 3.73816 580.675 4.68465C581.39 5.64251 581.958 6.65497 582.377 7.73342C582.796 8.80049 583.078 9.91989 583.215 11.1212C583.363 12.2952 583.432 13.4692 583.432 14.6159Z" fill="#FC6235"></path><path d="M570.258 37.2588V45.5974C570.258 46.933 569.176 48 567.852 48C566.528 48 565.446 46.933 565.446 45.5974V37.2588H570.258Z" fill="#FC6235"></path><path d="M659.591 14.6159V33.7777C659.591 35.7071 658.023 37.2588 656.092 37.2588H646.417V17.4758C646.417 16.1403 645.335 15.0732 644.011 15.0732C642.688 15.0732 641.605 16.1403 641.605 17.4758V37.2588H631.931C629.999 37.2588 628.432 35.7071 628.432 33.7777V14.6159C628.432 13.4692 628.5 12.2952 628.648 11.1212C628.782 9.91989 629.067 8.80049 629.486 7.73342C629.919 6.6527 630.486 5.64251 631.188 4.68465C631.917 3.74044 632.851 2.91681 633.999 2.22743C635.161 1.55169 636.553 0.998818 638.188 0.607483C639.824 0.188845 641.769 0 644.011 0C646.266 0 648.2 0.188845 649.834 0.607483C651.483 0.998818 652.875 1.55169 654.023 2.22743C655.185 2.91454 656.103 3.73816 656.834 4.68465C657.549 5.64251 658.117 6.65497 658.536 7.73342C658.955 8.80049 659.237 9.91989 659.374 11.1212C659.522 12.2952 659.591 13.4692 659.591 14.6159Z" fill="#FC6235"></path><path d="M646.417 37.2588V45.5974C646.417 46.933 645.335 48 644.011 48C642.687 48 641.605 46.933 641.605 45.5974V37.2588H646.417Z" fill="#FC6235"></path><path d="M735.75 14.6159V33.7777C735.75 35.7071 734.182 37.2588 732.251 37.2588H722.576V17.4758C722.576 16.1403 721.494 15.0732 720.17 15.0732C718.847 15.0732 717.764 16.1403 717.764 17.4758V37.2588H708.09C706.158 37.2588 704.591 35.7071 704.591 33.7777V14.6159C704.591 13.4692 704.659 12.2952 704.807 11.1212C704.941 9.91989 705.226 8.80049 705.645 7.73342C706.078 6.6527 706.645 5.64251 707.347 4.68465C708.076 3.74044 709.01 2.91681 710.158 2.22743C711.32 1.55169 712.712 0.998818 714.347 0.607483C715.983 0.188845 717.929 0 720.17 0C722.425 0 724.359 0.188845 725.993 0.607483C727.642 0.998818 729.034 1.55169 730.182 2.22743C731.344 2.91454 732.262 3.73816 732.993 4.68465C733.709 5.64251 734.276 6.65497 734.695 7.73342C735.114 8.80049 735.397 9.91989 735.533 11.1212C735.681 12.2952 735.75 13.4692 735.75 14.6159Z" fill="#FC6235"></path><path d="M722.576 37.2588V45.5974C722.576 46.933 721.494 48 720.17 48C718.846 48 717.764 46.933 717.764 45.5974V37.2588H722.576Z" fill="#FC6235"></path><path d="M811.909 14.6159V33.7777C811.909 35.7071 810.341 37.2588 808.41 37.2588H798.735V17.4758C798.735 16.1403 797.653 15.0732 796.329 15.0732C795.006 15.0732 793.924 16.1403 793.924 17.4758V37.2588H784.249C782.317 37.2588 780.75 35.7071 780.75 33.7777V14.6159C780.75 13.4692 780.818 12.2952 780.966 11.1212C781.1 9.91989 781.385 8.80049 781.804 7.73342C782.237 6.6527 782.804 5.64251 783.506 4.68465C784.235 3.74044 785.169 2.91681 786.317 2.22743C787.479 1.55169 788.871 0.998818 790.506 0.607483C792.142 0.188845 794.088 0 796.329 0C798.584 0 800.518 0.188845 802.152 0.607483C803.801 0.998818 805.193 1.55169 806.341 2.22743C807.503 2.91454 808.421 3.73816 809.152 4.68465C809.868 5.64251 810.435 6.65497 810.854 7.73342C811.273 8.80049 811.556 9.91989 811.692 11.1212C811.84 12.2952 811.909 13.4692 811.909 14.6159Z" fill="#FC6235"></path><path d="M798.735 37.2588V45.5974C798.735 46.933 797.653 48 796.329 48C795.006 48 793.923 46.933 793.923 45.5974V37.2588H798.735Z" fill="#FC6235"></path><path d="M888.068 14.6159V33.7777C888.068 35.7071 886.5 37.2588 884.569 37.2588H874.894V17.4758C874.894 16.1403 873.812 15.0732 872.488 15.0732C871.165 15.0732 870.083 16.1403 870.083 17.4758V37.2588H860.408C858.476 37.2588 856.909 35.7071 856.909 33.7777V14.6159C856.909 13.4692 856.977 12.2952 857.125 11.1212C857.26 9.91989 857.544 8.80049 857.963 7.73342C858.396 6.6527 858.963 5.64251 859.665 4.68465C860.394 3.74044 861.328 2.91681 862.476 2.22743C863.638 1.55169 865.03 0.998818 866.666 0.607483C868.301 0.188845 870.247 0 872.488 0C874.743 0 876.678 0.188845 878.311 0.607483C879.96 0.998818 881.352 1.55169 882.5 2.22743C883.662 2.91454 884.58 3.73816 885.311 4.68465C886.027 5.64251 886.594 6.65497 887.013 7.73342C887.432 8.80049 887.715 9.91989 887.851 11.1212C887.999 12.2952 888.068 13.4692 888.068 14.6159Z" fill="#FC6235"></path><path d="M874.894 37.2588V45.5974C874.894 46.933 873.812 48 872.488 48C871.165 48 870.083 46.933 870.083 45.5974V37.2588H874.894Z" fill="#FC6235"></path><path d="M964.227 14.6159V33.7777C964.227 35.7071 962.66 37.2588 960.728 37.2588H951.053V17.4758C951.053 16.1403 949.971 15.0732 948.647 15.0732C947.324 15.0732 946.242 16.1403 946.242 17.4758V37.2588H936.567C934.635 37.2588 933.068 35.7071 933.068 33.7777V14.6159C933.068 13.4692 933.136 12.2952 933.284 11.1212C933.419 9.91989 933.703 8.80049 934.122 7.73342C934.555 6.6527 935.123 5.64251 935.824 4.68465C936.553 3.74044 937.487 2.91681 938.635 2.22743C939.797 1.55169 941.189 0.998818 942.825 0.607483C944.46 0.188845 946.406 0 948.647 0C950.903 0 952.837 0.188845 954.47 0.607483C956.119 0.998818 957.511 1.55169 958.659 2.22743C959.821 2.91454 960.739 3.73816 961.47 4.68465C962.186 5.64251 962.753 6.65497 963.172 7.73342C963.591 8.80049 963.874 9.91989 964.01 11.1212C964.158 12.2952 964.227 13.4692 964.227 14.6159Z" fill="#FC6235"></path><path d="M951.053 37.2588V45.5974C951.053 46.933 949.971 48 948.647 48C947.324 48 946.242 46.933 946.242 45.5974V37.2588H951.053Z" fill="#FC6235"></path><path d="M1040.39 14.6159V33.7777C1040.39 35.7071 1038.82 37.2588 1036.89 37.2588H1027.21V17.4758C1027.21 16.1403 1026.13 15.0732 1024.81 15.0732C1023.48 15.0732 1022.4 16.1403 1022.4 17.4758V37.2588H1012.73C1010.79 37.2588 1009.23 35.7071 1009.23 33.7777V14.6159C1009.23 13.4692 1009.3 12.2952 1009.44 11.1212C1009.58 9.91989 1009.86 8.80049 1010.28 7.73342C1010.71 6.6527 1011.28 5.64251 1011.98 4.68465C1012.71 3.74044 1013.65 2.91681 1014.79 2.22743C1015.96 1.55169 1017.35 0.998818 1018.98 0.607483C1020.62 0.188845 1022.56 0 1024.81 0C1027.06 0 1029 0.188845 1030.63 0.607483C1032.28 0.998818 1033.67 1.55169 1034.82 2.22743C1035.98 2.91454 1036.9 3.73816 1037.63 4.68465C1038.34 5.64251 1038.91 6.65497 1039.33 7.73342C1039.75 8.80049 1040.03 9.91989 1040.17 11.1212C1040.32 12.2952 1040.39 13.4692 1040.39 14.6159Z" fill="#FC6235"></path><path d="M1027.21 37.2588V45.5974C1027.21 46.933 1026.13 48 1024.81 48C1023.48 48 1022.4 46.933 1022.4 45.5974V37.2588H1027.21Z" fill="#FC6235"></path><path d="M1116.54 14.6159V33.7777C1116.54 35.7071 1114.98 37.2588 1113.05 37.2588H1103.37V17.4758C1103.37 16.1403 1102.29 15.0732 1100.97 15.0732C1099.64 15.0732 1098.56 16.1403 1098.56 17.4758V37.2588H1088.88C1086.95 37.2588 1085.39 35.7071 1085.39 33.7777V14.6159C1085.39 13.4692 1085.45 12.2952 1085.6 11.1212C1085.74 9.91989 1086.02 8.80049 1086.44 7.73342C1086.87 6.6527 1087.44 5.64251 1088.14 4.68465C1088.87 3.74044 1089.81 2.91681 1090.95 2.22743C1092.12 1.55169 1093.51 0.998818 1095.14 0.607483C1096.78 0.188845 1098.72 0 1100.97 0C1103.22 0 1105.15 0.188845 1106.79 0.607483C1108.44 0.998818 1109.83 1.55169 1110.98 2.22743C1112.14 2.91454 1113.06 3.73816 1113.79 4.68465C1114.5 5.64251 1115.07 6.65497 1115.49 7.73342C1115.91 8.80049 1116.19 9.91989 1116.33 11.1212C1116.48 12.2952 1116.54 13.4692 1116.54 14.6159Z" fill="#FC6235"></path><path d="M1103.37 37.2588V45.5974C1103.37 46.933 1102.29 48 1100.97 48C1099.64 48 1098.56 46.933 1098.56 45.5974V37.2588H1103.37Z" fill="#FC6235"></path><path d="M1192.7 14.6159V33.7777C1192.7 35.7071 1191.14 37.2588 1189.2 37.2588H1179.53V17.4758C1179.53 16.1403 1178.45 15.0732 1177.12 15.0732C1175.8 15.0732 1174.72 16.1403 1174.72 17.4758V37.2588H1165.04C1163.11 37.2588 1161.54 35.7071 1161.54 33.7777V14.6159C1161.54 13.4692 1161.61 12.2952 1161.76 11.1212C1161.9 9.91989 1162.18 8.80049 1162.6 7.73342C1163.03 6.6527 1163.6 5.64251 1164.3 4.68465C1165.03 3.74044 1165.96 2.91681 1167.11 2.22743C1168.27 1.55169 1169.67 0.998818 1171.3 0.607483C1172.94 0.188845 1174.88 0 1177.12 0C1179.38 0 1181.31 0.188845 1182.95 0.607483C1184.6 0.998818 1185.99 1.55169 1187.14 2.22743C1188.3 2.91454 1189.22 3.73816 1189.95 4.68465C1190.66 5.64251 1191.23 6.65497 1191.65 7.73342C1192.07 8.80049 1192.35 9.91989 1192.49 11.1212C1192.64 12.2952 1192.7 13.4692 1192.7 14.6159Z" fill="#FC6235"></path><path d="M1179.53 37.2588V45.5974C1179.53 46.933 1178.45 48 1177.12 48C1175.8 48 1174.72 46.933 1174.72 45.5974V37.2588H1179.53Z" fill="#FC6235"></path><path d="M1268.86 14.6159V33.7777C1268.86 35.7071 1267.3 37.2588 1265.36 37.2588H1255.69V17.4758C1255.69 16.1403 1254.61 15.0732 1253.28 15.0732C1251.96 15.0732 1250.88 16.1403 1250.88 17.4758V37.2588H1241.2C1239.27 37.2588 1237.7 35.7071 1237.7 33.7777V14.6159C1237.7 13.4692 1237.77 12.2952 1237.92 11.1212C1238.05 9.91989 1238.34 8.80049 1238.76 7.73342C1239.19 6.6527 1239.76 5.64251 1240.46 4.68465C1241.19 3.74044 1242.12 2.91681 1243.27 2.22743C1244.43 1.55169 1245.83 0.998818 1247.46 0.607483C1249.1 0.188845 1251.04 0 1253.28 0C1255.54 0 1257.47 0.188845 1259.11 0.607483C1260.76 0.998818 1262.15 1.55169 1263.3 2.22743C1264.46 2.91454 1265.38 3.73816 1266.11 4.68465C1266.82 5.64251 1267.39 6.65497 1267.81 7.73342C1268.23 8.80049 1268.51 9.91989 1268.65 11.1212C1268.79 12.2952 1268.86 13.4692 1268.86 14.6159Z" fill="#FC6235"></path><path d="M1255.69 37.2588V45.5974C1255.69 46.933 1254.61 48 1253.28 48C1251.96 48 1250.88 46.933 1250.88 45.5974V37.2588H1255.69Z" fill="#FC6235"></path><path d="M1345.02 14.6159V33.7777C1345.02 35.7071 1343.46 37.2588 1341.52 37.2588H1331.85V17.4758C1331.85 16.1403 1330.77 15.0732 1329.44 15.0732C1328.12 15.0732 1327.04 16.1403 1327.04 17.4758V37.2588H1317.36C1315.43 37.2588 1313.86 35.7071 1313.86 33.7777V14.6159C1313.86 13.4692 1313.93 12.2952 1314.08 11.1212C1314.21 9.91989 1314.5 8.80049 1314.92 7.73342C1315.35 6.6527 1315.92 5.64251 1316.62 4.68465C1317.35 3.74044 1318.28 2.91681 1319.43 2.22743C1320.59 1.55169 1321.98 0.998818 1323.62 0.607483C1325.26 0.188845 1327.2 0 1329.44 0C1331.7 0 1333.63 0.188845 1335.27 0.607483C1336.91 0.998818 1338.31 1.55169 1339.45 2.22743C1340.62 2.91454 1341.53 3.73816 1342.27 4.68465C1342.98 5.64251 1343.55 6.65497 1343.97 7.73342C1344.39 8.80049 1344.67 9.91989 1344.81 11.1212C1344.95 12.2952 1345.02 13.4692 1345.02 14.6159Z" fill="#FC6235"></path><path d="M1331.85 37.2588V45.5974C1331.85 46.933 1330.77 48 1329.44 48C1328.12 48 1327.04 46.933 1327.04 45.5974V37.2588H1331.85Z" fill="#FC6235"></path><path d="M1421.18 14.6159V33.7777C1421.18 35.7071 1419.61 37.2588 1417.68 37.2588H1408.01V17.4758C1408.01 16.1403 1406.93 15.0732 1405.6 15.0732C1404.28 15.0732 1403.2 16.1403 1403.2 17.4758V37.2588H1393.52C1391.59 37.2588 1390.02 35.7071 1390.02 33.7777V14.6159C1390.02 13.4692 1390.09 12.2952 1390.24 11.1212C1390.37 9.91989 1390.66 8.80049 1391.08 7.73342C1391.51 6.6527 1392.08 5.64251 1392.78 4.68465C1393.51 3.74044 1394.44 2.91681 1395.59 2.22743C1396.75 1.55169 1398.14 0.998818 1399.78 0.607483C1401.41 0.188845 1403.36 0 1405.6 0C1407.86 0 1409.79 0.188845 1411.42 0.607483C1413.07 0.998818 1414.47 1.55169 1415.61 2.22743C1416.78 2.91454 1417.69 3.73816 1418.43 4.68465C1419.14 5.64251 1419.71 6.65497 1420.13 7.73342C1420.55 8.80049 1420.83 9.91989 1420.97 11.1212C1421.11 12.2952 1421.18 13.4692 1421.18 14.6159Z" fill="#FC6235"></path><path d="M1408.01 37.2588V45.5974C1408.01 46.933 1406.93 48 1405.6 48C1404.28 48 1403.2 46.933 1403.2 45.5974V37.2588H1408.01Z" fill="#FC6235"></path></svg>